<svg width="32" height="32" viewBox="0 0 32 32" fill="none" xmlns="http://www.w3.org/2000/svg">
<path d="M24.495 26.02C23.58 27.5 22.08 28.285 20.725 28.865C19.235 29.5 17.635 29.96 16.005 29.98H16C14.37 29.96 12.77 29.5 11.28 28.865C9.925 28.285 8.425 27.5 7.51 26.02C6.97 25.13 6.7 24.075 6.755 23.045C6.84 21.59 7.55 20.315 8.655 19.635C9.795 18.935 11.165 18.985 12.425 19.25C13.61 19.505 14.775 20.16 16 20.205H16.005C17.23 20.16 18.395 19.505 19.58 19.25C20.84 18.985 22.21 18.935 23.35 19.635C24.455 20.315 25.165 21.59 25.25 23.045C25.305 24.075 25.035 25.13 24.495 26.02Z" fill="#1C64F2"/>
<path d="M10.15 17.11C9.80499 16.325 9.61499 15.455 9.61499 14.545C9.61499 13.635 9.79499 12.8 10.14 12.005C9.73999 11.925 9.32999 11.785 8.89499 11.63L8.83499 11.61C8.10499 11.365 7.26999 11.08 6.31999 11.025C5.46499 10.97 4.65999 11.16 3.99999 11.565C2.98499 12.2 2.33499 13.365 2.25999 14.69C2.20999 15.64 2.45499 16.6 2.94499 17.4C3.65999 18.565 4.75499 19.245 5.81499 19.735C6.27999 19.015 6.89499 18.4 7.62499 17.955C8.36999 17.495 9.23499 17.205 10.145 17.105L10.15 17.11Z" fill="#1C64F2"/>
<path d="M21.85 17.11C22.195 16.325 22.385 15.455 22.385 14.545C22.385 13.635 22.205 12.8 21.86 12.005C22.26 11.925 22.67 11.785 23.105 11.63L23.165 11.61C23.895 11.365 24.73 11.08 25.68 11.025C26.535 10.97 27.34 11.16 28 11.565C29.015 12.2 29.665 13.365 29.74 14.69C29.79 15.64 29.545 16.6 29.055 17.4C28.34 18.565 27.245 19.245 26.185 19.735C25.72 19.015 25.105 18.4 24.375 17.955C23.63 17.495 22.765 17.205 21.855 17.105L21.85 17.11Z" fill="#1C64F2"/>
<path d="M16 18.5C18.4853 18.5 20.5 16.4853 20.5 14C20.5 11.5147 18.4853 9.5 16 9.5C13.5147 9.5 11.5 11.5147 11.5 14C11.5 16.4853 13.5147 18.5 16 18.5Z" fill="#1C64F2"/>
<path d="M10.605 10.145C12.8417 10.145 14.655 8.33177 14.655 6.09501C14.655 3.85826 12.8417 2.04501 10.605 2.04501C8.36824 2.04501 6.55499 3.85826 6.55499 6.09501C6.55499 8.33177 8.36824 10.145 10.605 10.145Z" fill="#1C64F2"/>
<path d="M21.4 10.145C23.6367 10.145 25.45 8.33177 25.45 6.09501C25.45 3.85826 23.6367 2.04501 21.4 2.04501C19.1632 2.04501 17.35 3.85826 17.35 6.09501C17.35 8.33177 19.1632 10.145 21.4 10.145Z" fill="#1C64F2"/>
</svg>
