<svg width="33" height="32" viewBox="0 0 33 32" fill="none" xmlns="http://www.w3.org/2000/svg">
<g clip-path="url(#clip0_6001_2059)">
<path d="M32.5234 15.6363L25.0568 7.63636C24.956 7.52811 24.8147 7.46674 24.6669 7.46674H16.1336C15.9176 7.46674 15.723 7.59686 15.6408 7.7958C15.5576 7.99523 15.6035 8.22461 15.7566 8.37711L23.3789 16L15.7566 23.6229C15.6035 23.7755 15.5576 24.0048 15.6408 24.2042C15.723 24.4031 15.9176 24.5333 16.1336 24.5333H24.6669C24.8147 24.5333 24.956 24.4719 25.0568 24.3636L32.5234 16.3637C32.7144 16.1589 32.7144 15.8411 32.5234 15.6363Z" fill="#1C64F2"/>
<path d="M17.5901 15.6363L10.1235 7.63636C10.0227 7.52811 9.88136 7.46674 9.73361 7.46674H1.20041C0.984415 7.46674 0.789728 7.59686 0.707604 7.7958C0.624417 7.99523 0.670291 8.22461 0.823353 8.37711L8.44568 16L0.823353 23.6229C0.670291 23.7755 0.624417 24.0048 0.707604 24.2042C0.789728 24.4031 0.984415 24.5333 1.20041 24.5333H9.73368C9.88143 24.5333 10.0227 24.4719 10.1235 24.3636L17.5902 16.3637C17.7811 16.1589 17.7811 15.8411 17.5901 15.6363Z" fill="#1C64F2"/>
</g>
<defs>
<clipPath id="clip0_6001_2059">
<rect width="32" height="32" fill="white" transform="translate(0.666626)"/>
</clipPath>
</defs>
</svg>
