<svg width="32" height="32" viewBox="0 0 32 32" fill="none" xmlns="http://www.w3.org/2000/svg">
<path d="M16 1.33333C12.5988 1.33218 9.28577 2.41538 6.54215 4.42559C3.79854 6.4358 1.76723 9.26834 0.74327 12.5118C-0.280691 15.7552 -0.243975 19.2406 0.848084 22.4618C1.94014 25.6829 4.03067 28.472 6.81602 30.424L7.16136 30.6667H24.8387L25.184 30.424C27.9694 28.472 30.0599 25.6829 31.152 22.4618C32.244 19.2406 32.2807 15.7552 31.2568 12.5118C30.2328 9.26834 28.2015 6.4358 25.4579 4.42559C22.7143 2.41538 19.4013 1.33218 16 1.33333ZM8.08002 26.3347C5.89851 24.4266 4.48244 21.7926 4.09414 18.9206C3.70585 16.0485 4.37163 13.133 5.96817 10.7142C7.5647 8.29541 9.98378 6.53721 12.7773 5.7653C15.5708 4.99339 18.5494 5.26009 21.1614 6.516L19.1267 8.55066C18.124 8.18825 17.0662 8.00195 16 8C14.1032 7.99782 12.2509 8.57428 10.6903 9.65241C9.12976 10.7305 7.93516 12.259 7.26603 14.0339C6.5969 15.8087 6.48507 17.7454 6.94546 19.5855C7.40586 21.4256 8.41658 23.0814 9.84269 24.332L8.08002 26.3347ZM16 20C15.6178 20.005 15.2389 19.9278 14.8891 19.7736C14.5393 19.6194 14.2268 19.3918 13.9727 19.1062C13.7185 18.8206 13.5288 18.4837 13.4163 18.1184C13.3038 17.753 13.2711 17.3678 13.3206 16.9887C13.37 16.6096 13.5004 16.2456 13.7028 15.9214C13.9053 15.5971 14.1751 15.3201 14.4939 15.1093C14.8128 14.8984 15.1732 14.7586 15.5509 14.6992C15.9285 14.6399 16.3145 14.6624 16.6827 14.7653L23.0574 8.39066L24.9427 10.276L18.568 16.6507C18.6792 17.045 18.6969 17.4599 18.6196 17.8623C18.5424 18.2646 18.3723 18.6435 18.123 18.9686C17.8737 19.2938 17.552 19.5563 17.1835 19.7353C16.8149 19.9144 16.4097 20.005 16 20ZM23.92 26.3347L22.1574 24.3347C23.5647 23.1083 24.5684 21.4852 25.0369 19.6783C25.5054 17.8713 25.4168 15.965 24.7827 14.2093L26.8174 12.1747C27.9502 14.5268 28.2803 17.1856 27.7569 19.7433C27.2336 22.3011 25.8857 24.6165 23.92 26.3347Z" fill="#1C64F2"/>
</svg>
