<svg width="32" height="32" viewBox="0 0 32 32" fill="none" xmlns="http://www.w3.org/2000/svg">
<path fill-rule="evenodd" clip-rule="evenodd" d="M16.55 2.165C16.216 1.945 15.784 1.945 15.45 2.165C12.262 4.263 8.705 5.477 4.863 6.009C4.368 6.078 4 6.501 4 7C4 15.913 5.103 20.806 7.775 24.225C9.574 26.527 12.096 28.18 15.556 29.896C15.836 30.035 16.164 30.035 16.444 29.896C19.904 28.18 22.426 26.527 24.225 24.225C26.897 20.806 28 15.913 28 7C28 6.501 27.632 6.078 27.137 6.009C23.295 5.477 19.738 4.263 16.55 2.165ZM11.293 17.707L14.293 20.707C14.508 20.923 14.81 21.028 15.113 20.994C15.416 20.959 15.686 20.788 15.848 20.53L20.848 12.53C21.141 12.062 20.998 11.445 20.53 11.152C20.062 10.859 19.445 11.002 19.152 11.47L14.818 18.404L12.707 16.293C12.317 15.903 11.683 15.903 11.293 16.293C10.903 16.683 10.903 17.317 11.293 17.707Z" fill="#1C64F2"/>
</svg>
